<svg xmlns="http://www.w3.org/2000/svg" viewBox="0 0 77 99"><defs><style>.cls-1{fill:#f39800;stroke:#f39800;stroke-width:2.29px;}.cls-1,.cls-2{stroke-miterlimit:10;}.cls-2{fill:none;stroke:#fff;stroke-width:2px;}.cls-3{fill:#fff;}</style></defs><title>car</title><g id="圖層_2" data-name="圖層 2"><path class="cls-1" d="M73.19,37.84A35.72,35.72,0,1,0,7.73,57.6C10.63,62,36.84,95.75,36.84,95.75S61.42,65.52,66.21,59A35.55,35.55,0,0,0,73.19,37.84Z"/><circle class="cls-2" cx="37.78" cy="37.81" r="28.76"/><path class="cls-3" d="M51.72,32.53H50.9c-.66-1.44-2.65-5.38-5.08-6.66a16.25,16.25,0,0,0-7.59-1.75c-3,.07-6.91.91-8.67,2.42a18.92,18.92,0,0,0-3.77,6H25c-.07.11-6.14,1.26-7.93,3.08s-2.15,7.09-.35,7.09h5.72c0,.11,0,.23,0,.35a3.95,3.95,0,1,0,7.9,0c0-.12,0-.24,0-.35H46.66a2,2,0,0,0,0,.35,3.95,3.95,0,0,0,7.9,0c0-.12,0-.24,0-.35H60c1.81,0,1.55-5.17-.35-7.09S51.78,32.64,51.72,32.53Zm-15.14,0H29.44a14.54,14.54,0,0,1,2.28-3.46,11.45,11.45,0,0,1,4.86-1.5Zm5.32,0h-2v-5a12.66,12.66,0,0,1,4.36,1.31c.87.45,2,2.11,2.9,3.71Z"/></g></svg>