<svg xmlns="http://www.w3.org/2000/svg" viewBox="0 0 23 25"><defs><style>.cls-1{fill:#fff;}</style></defs><title>cashbag</title><g id="圖層_2" data-name="圖層 2"><path class="cls-1" d="M18.75,5.7c-1.28.73-2.18,1.17-2.91,1.06A5.18,5.18,0,0,0,18.7,4c.06-.13-.33-.31-.46-.36a.25.25,0,0,0-.33.13A4.62,4.62,0,0,1,16,6.13a10.65,10.65,0,0,0,1.17-4.62H5.71A9.52,9.52,0,0,0,7.59,7.15h7.68a4.11,4.11,0,0,0,1.15.17,5.44,5.44,0,0,0,2.71-.79c.12-.07,0-.6,0-.72A.25.25,0,0,0,18.75,5.7Z"/><path class="cls-1" d="M15.36,7.71H7.5a10.66,10.66,0,0,0-6.72,9.9C.78,23.49,5.55,24,11.43,24s10.65-.51,10.65-6.39A10.65,10.65,0,0,0,15.36,7.71Zm-1,9.65a2.44,2.44,0,0,1-2.2,2.16v1.36H10.85V19.63A6.17,6.17,0,0,1,8.5,19L9,17.49a5.2,5.2,0,0,0,1.28.46c.69.14,1.88.11,2-.54s-.27-.87-1.12-1.12-2.33-.93-2.47-2.08.42-2.21,2.11-2.57V10.32h1.31v1.16a5.53,5.53,0,0,1,1.85.43l-.31,1.41A7.07,7.07,0,0,0,11.53,13c-.87.07-.92,1-.31,1.34a18.22,18.22,0,0,0,2.15,1A2,2,0,0,1,14.35,17.36Z"/></g></svg>