<svg xmlns="http://www.w3.org/2000/svg" viewBox="0 0 79 102"><defs><style>.cls-1{fill:#f39800;stroke:#f39800;stroke-width:2.29px;}.cls-1,.cls-2{stroke-miterlimit:10;}.cls-2{fill:none;stroke:#fff;stroke-width:2px;}.cls-3{fill:#fff;}</style></defs><title>east</title><g id="圖層_2" data-name="圖層 2"><path class="cls-1" d="M74.75,39.72A35.72,35.72,0,1,0,3.39,42a35.36,35.36,0,0,0,5.9,17.49c2.9,4.36,29.12,38.15,29.12,38.15S63,67.4,67.77,60.92A35.56,35.56,0,0,0,74.75,39.72Z"/><circle class="cls-2" cx="39.34" cy="39.7" r="28.76"/><path class="cls-3" d="M32.88,64.42,34.45,58c.35-1.46.89-3.12,2.3-3.62A5.22,5.22,0,0,0,37.84,54a2.3,2.3,0,0,0,.68-.83l2.31-3.91a60.58,60.58,0,0,0,4.4-8.41A50,50,0,0,0,48,28.63a24.22,24.22,0,0,1,1-5.22,7.4,7.4,0,0,1,3.21-4.12,2.72,2.72,0,0,0-2.6-1.07,13.91,13.91,0,0,1-3,.16A3.64,3.64,0,0,0,45,18.22c-1.12.35-1.09,2-1.77,2.92-.24.34-.57.6-.82.94a4.57,4.57,0,0,0-.53,1.06,9.38,9.38,0,0,0-1,4,3.49,3.49,0,0,1,0,1.29c-.17.58-.72,1-1,1.51-.37.82,0,1.77,0,2.66a3.35,3.35,0,0,1-2.34,3.17,2.93,2.93,0,0,0-1.2.47A2,2,0,0,0,36,37a35,35,0,0,0-1.25,4,4.84,4.84,0,0,1-.74,1.9c-.3.39-.73.68-1,1.09a15.81,15.81,0,0,0-.7,2.21c-.2.43-.54.8-.74,1.23-.86,1.87,1,4,.62,6a1,1,0,0,1-.31.64,2.13,2.13,0,0,1-.8.24c-1,.29-1.31,1.59-1.2,2.63s.42,2.16,0,3.1c-.17.35-.42.82-.12,1.06.13.11.32.12.45.22a.72.72,0,0,1,.19.62C30.08,64.37,32.88,64.42,32.88,64.42Z"/></g></svg>