<svg xmlns="http://www.w3.org/2000/svg" viewBox="0 0 79 102"><defs><style>.cls-1{fill:#f39800;stroke:#f39800;stroke-width:2.29px;}.cls-1,.cls-2{stroke-miterlimit:10;}.cls-2{fill:none;stroke:#fff;stroke-width:2px;}.cls-3{fill:#fff;}</style></defs><title>flight</title><g id="圖層_2" data-name="圖層 2"><path class="cls-1" d="M75.58,41.72A35.72,35.72,0,1,0,10.12,61.48C13,65.84,39.24,99.63,39.24,99.63S63.81,69.4,68.61,62.92A35.55,35.55,0,0,0,75.58,41.72Z"/><circle class="cls-2" cx="39.44" cy="41.7" r="28.76"/><path class="cls-3" d="M61.07,40.13l-2.48-1.49a6.86,6.86,0,0,0-3.5-1l-6.83.27-1.49-2.29h.12a1.61,1.61,0,1,0,0-3.21H44.67l-1.25-1.93h.5a1.61,1.61,0,1,0,0-3.21H41.33l-1.26-1.93a4.59,4.59,0,0,0-2.25-1.8L36.42,23a1.48,1.48,0,0,0-1.5.29,1.46,1.46,0,0,0-.45,1.45l3.37,13.56-7.6.29L26.46,34.7a1.26,1.26,0,0,0-2.16.88v4.63l-.81.55a1.76,1.76,0,0,0,.08,3l.73.44v4.49a1.25,1.25,0,0,0,.79,1.16,1.27,1.27,0,0,0,.47.09,1.25,1.25,0,0,0,.9-.38l3.78-3.93,7.6.29L34.47,59.43a1.47,1.47,0,0,0,1.43,1.83,1.54,1.54,0,0,0,.52-.09l1.4-.53a4.54,4.54,0,0,0,2.25-1.8l1.26-1.93h2.59a1.61,1.61,0,1,0,0-3.21h-.5l1.25-1.93h2.22a1.61,1.61,0,1,0,0-3.21h-.12l1.49-2.28,6.57.25h.26a6.86,6.86,0,0,0,3.5-1l2.48-1.49a2.29,2.29,0,0,0,0-3.95ZM37.15,25.37a2.64,2.64,0,0,1,1.3,1.05L46,38l-.51,0-2.74.05-3.24-7.76a.48.48,0,0,0-.44-.3H37.76l-1.21-4.88Zm4.57,12.74-1.95,0L38,31h.76Zm-13.2.59h-.17a6.69,6.69,0,0,0-2.78.71l0-3.83Zm-2.94,9.94V44.87a7.09,7.09,0,0,0,2.59.63h.37ZM41.72,46.1l-3,7.12H38l1.77-7.15ZM38.45,57.79a2.64,2.64,0,0,1-1.3,1.05l-.6.22,1.21-4.88h1.32a.47.47,0,0,0,.44-.29l3.24-7.77,2.64.05.61,0Zm7.12-13.55-17.32-.67a6.57,6.57,0,0,1-2.81-1h3.15a.49.49,0,0,0,0-1H25.44a8.87,8.87,0,0,1,3-1l26.48-1h.19a5,5,0,0,1,1,.12,6.35,6.35,0,0,1,0,4.77,5,5,0,0,1-1,.12Zm14.51-1.81-2.41,1.45a7.88,7.88,0,0,0,0-3.55l2.41,1.45a.37.37,0,0,1,.19.32A.37.37,0,0,1,60.08,42.43Z"/></g></svg>