<svg xmlns="http://www.w3.org/2000/svg" viewBox="0 0 77 99"><defs><style>.cls-1{fill:#f39800;stroke:#f39800;stroke-width:2.29px;}.cls-1,.cls-2,.cls-4{stroke-miterlimit:10;}.cls-2,.cls-4{fill:none;stroke:#fff;}.cls-2{stroke-width:2px;}.cls-3{fill:#fff;}</style></defs><title>global</title><g id="圖層_2" data-name="圖層 2"><path class="cls-1" d="M73.88,37.84A35.72,35.72,0,1,0,8.42,57.6C11.33,62,37.54,95.75,37.54,95.75S62.12,65.52,66.91,59A35.55,35.55,0,0,0,73.88,37.84Z"/><circle class="cls-2" cx="38.17" cy="37.81" r="28.76"/><path class="cls-3" d="M32,28.14a.84.84,0,0,1-.16.07c-.09,0-.09.08-.14.08s-.09.11-.11.12a.13.13,0,0,1-.08.05.34.34,0,0,1-.15,0c-.07,0,0,0-.05,0s-.06,0-.1,0-.21.1-.21.08-.07,0-.1,0-.1,0-.16,0,0,0,0,.07,0,.08-.1.09-.1,0-.14.06,0,.07,0,.06.06,0,.19,0,0,.07,0,.07l-.08,0-.09,0s-.09,0-.11,0l-.08,0-.06.06a.57.57,0,0,1-.08.08s-.07,0-.12-.06L30,29a.51.51,0,0,0-.12.05.22.22,0,0,0-.05.06l-.17,0c-.05,0-.09.05-.12.09a.17.17,0,0,1-.14.05c-.05,0-.11,0-.14,0s0,0,.06-.1.1,0,.14,0,0-.05,0-.11a.27.27,0,0,1,.07-.12.73.73,0,0,1,.14-.11c.05,0,.06-.07.09-.1s0-.08,0-.15,0-.09,0-.12,0,0,.09-.05a.45.45,0,0,0,.13-.11c.06-.05,0-.08-.05-.13a.15.15,0,0,0-.08-.09s0-.07,0-.1.05,0,.08,0a.41.41,0,0,1,.14.12s.11.05.17.09.09,0,.17,0,.06-.09.07-.1,0-.05,0-.08-.09-.07-.09-.13-.09,0-.1-.06-.06-.08-.08-.12-.12,0-.14,0-.13,0-.13,0-.06,0-.07-.05-.13,0-.15,0-.17,0-.2,0a1.38,1.38,0,0,0-.37,0,.3.3,0,0,1-.13,0s0-.05,0-.08-.07-.08-.12-.08a.07.07,0,0,1-.05-.08s.07,0,.09-.07-.08-.09-.12-.12,0-.07,0-.12,0-.11,0-.14-.14,0-.17,0-.05.07-.08.09-.08,0-.07,0,.05-.07,0-.1-.15-.15-.14-.19,0-.07-.05-.08-.07-.09-.07-.09a.82.82,0,0,0-.18,0,.64.64,0,0,1-.15,0s0-.05-.07-.09-.14,0-.14,0-.07.1-.12.14-.14.15-.14.12,0-.06-.07-.07-.1.14-.11.17a.9.9,0,0,1-.31.17,1,1,0,0,0-.26.11l-.28.19s-.21.1-.23.15v0a.09.09,0,0,0,.06,0,.35.35,0,0,0,.18,0c.06,0,0,0,.07-.07s.11,0,.14,0,0,0,0,.07,0,0,.08,0,.09,0,.13,0l.1,0c.1,0,.06,0,.15,0s.08,0,.15-.1a.52.52,0,0,1,.18-.13,1.14,1.14,0,0,1,.19-.12l.12.09-.22.12c-.09,0,0,0,.09,0s.1,0,.17,0,.11.14.16.1.08.05.12.06a.32.32,0,0,0,.14,0,.7.7,0,0,0,.16-.09c.09-.06.1,0,.19,0s.11,0,.16,0,0,0,.05.07.06,0,.09,0a.27.27,0,0,1,.16.07c.06.05.1.09.06.08l-.06,0c-.06,0-.05,0-.13,0a1,1,0,0,1-.16,0c-.1,0-.08,0-.12,0s0,0-.08.06,0,0-.11,0a.24.24,0,0,0-.12,0,.89.89,0,0,1-.12.09c-.07,0,0,0-.1,0s-.12,0-.15,0-.06.05-.06.13,0,0-.07.12-.05.07-.11.13-.06.12,0,.14,0,0,.11-.1.17-.25.2-.28,0,0,0,.09,0,.07,0,.12a.38.38,0,0,1-.08.18.37.37,0,0,1-.11.13s0,.05-.09.11,0,.2,0,.25,0,.05-.09.13a.22.22,0,0,0,0,.21,2.56,2.56,0,0,0,.05.27s.23.08.23.08a.54.54,0,0,0,.16-.09c.07-.05,0-.08,0-.12l.11-.19a.59.59,0,0,0,.06-.2c0-.09-.06-.09-.09-.13s0-.06,0-.08a.17.17,0,0,1,.06-.15.07.07,0,0,0,0-.1.22.22,0,0,1,0-.13.19.19,0,0,1,.09-.11l.1-.08c.05,0,0,0,.08.06s0,0,.09-.08,0,0,.05-.11,0-.06.11-.13l.07-.06s.05.05.09,0,.14,0,.17,0,.17.07.2.09.07.12,0,.15a2.66,2.66,0,0,0,0,.34c0,.07,0,.06,0,.08s0,0-.13.05a.19.19,0,0,0-.12.06s.06.1.12.09.07-.06.14-.1,0-.08.1-.11,0,0,.06.06.06,0,.09.07,0,.1,0,.13,0,.11,0,.14a.1.1,0,0,1,0,.1l-.08.06s-.13.23-.22.3,0,0-.08.08,0,0,0,0,.07,0,.11,0l.13,0a.4.4,0,0,0,.23,0c.07,0,.28-.05.35-.08s.05-.05.11-.09a.14.14,0,0,1,.12,0l.16-.06.14,0a.51.51,0,0,0,.08-.13l.17-.07a.23.23,0,0,0,.12-.12.42.42,0,0,0,0-.18s.16,0,.2,0a1.07,1.07,0,0,1,.18,0c.06,0,.06,0,.2.06s.06,0,.14-.07,0,0,.08,0,0,0,.08-.05,0-.05.05-.11,0-.07,0-.13.06,0,.12-.08a3.6,3.6,0,0,0,.34-.31s0,0-.05,0S32.07,28.13,32,28.14Z"/><path class="cls-3" d="M24.92,25.25s-.07-.14-.08-.16,0-.09,0-.11a.15.15,0,0,1,0-.15c0-.07,0-.1,0-.1s-.08-.05-.07-.07.07-.12,0-.14-.08-.05-.11-.09-.15-.06-.06-.1l.17-.1c.09-.05.11-.07.06-.08s-.1.06-.11,0l0-.16s-.13.3-.17.31h-.18s-.07.07-.11.13-.1.08-.08.13,0,.1.06.09a.5.5,0,0,1,.15,0s-.06.08-.07.12,0,.08.07.14a.43.43,0,0,1,.14.2s.1,0,.12,0a.1.1,0,0,1,.1.09s0,.06,0,.12,0,.07,0,0l.12-.07a.41.41,0,0,1,0,.12.71.71,0,0,1-.08.18.74.74,0,0,0,0,.14c0,.07,0,.08,0,.12s.11,0,.18-.11a.35.35,0,0,0,.08-.19.43.43,0,0,0,0-.16S25,25.27,24.92,25.25Z"/><path class="cls-3" d="M56.6,30.3l0-.07c-.15-.35-.3-.7-.46-1.05,0,0-.11.05-.16,0S56,29,55.93,29s-.18-.1-.25-.09a.73.73,0,0,1-.25-.08s0-.11,0-.11-.14-.11-.19-.14-.12-.13-.14-.13L55,28.37a.79.79,0,0,1-.14-.15.38.38,0,0,1-.09-.15.56.56,0,0,1-.06-.17s0-.13,0-.14l-.18-.06s-.1,0-.14,0,0-.07-.09-.06-.06,0-.11,0-.09,0-.13,0a.94.94,0,0,0-.1.1s0,0-.06,0,0-.08-.09,0h0a1.46,1.46,0,0,0-.15.13s0,0-.09.05a1.28,1.28,0,0,1-.26.2L53,28.13s-.12,0-.14,0,0-.08-.1-.09h-.2s-.07-.05-.12,0-.18.06-.2.09a1.27,1.27,0,0,0-.14.17c0,.05,0,0,0,.11l0,.1a.55.55,0,0,0,0,.12s0,0,0,.08a.37.37,0,0,1-.1.11s0-.07-.13,0a1.78,1.78,0,0,1-.17.15.58.58,0,0,0-.13,0s-.11,0-.14,0l-.13.09s-.1,0-.11,0-.14.07-.14.09-.06.07-.06.08a1.5,1.5,0,0,1-.12.27s0,.05,0,.1,0,.07,0,.14,0,.09.06.12S51,30,51,30a.07.07,0,0,1,0,.09s-.11.06-.13.08,0,0-.07.05l-.07.12s-.07.05-.09.09,0,0,0,.05-.17.09-.17.09l-.1.07a1.16,1.16,0,0,1-.13.15l-.09,0-.07,0a.7.7,0,0,0-.16,0,.31.31,0,0,1-.09,0,.19.19,0,0,0-.09,0l-.16,0a.14.14,0,0,1-.11,0,.1.1,0,0,0-.08,0,.54.54,0,0,1-.22.08s-.05,0-.09.09-.1.08-.11.07-.15,0-.15-.06l-.14-.17s0-.13,0-.14l-.16-.06s0,0-.09,0h-.06a.07.07,0,0,0-.06,0s0,0-.08,0H48l-.12-.05a.14.14,0,0,0-.11,0,.27.27,0,0,1-.1,0s0,0,0-.05,0-.14.05-.17a.28.28,0,0,0,0-.17.37.37,0,0,0,0-.12.44.44,0,0,1,0-.09c-.07,0-.12,0-.12,0s0-.12,0-.13,0,0,0-.07,0,0,0-.12.08-.06.09-.14.18-.46.18-.49a.37.37,0,0,1,0-.15.68.68,0,0,0,0-.15s0,0,0-.1a.22.22,0,0,1,0-.14v0a1.05,1.05,0,0,0,0-.13l0-.08c0-.07,0-.09-.06-.1s-.06,0,0-.06,0-.1.08-.11.14-.06.16-.05a.14.14,0,0,0,.12,0s.06-.09.08-.11.06-.07.11-.07a.22.22,0,0,1,.13.06s0,0,.07.05,0,0,.1,0a.33.33,0,0,0,.11,0s.23-.05.24,0S49,28,49,28s.07,0,.12,0l.18,0a.3.3,0,0,0,.1,0l.16,0s0,0,.07,0,.1.05.17.05.14-.05.18,0,.05,0,.1,0l.13,0s0,0,.1,0,.06,0,.11,0h0c.07-.07.09-.05.11-.11s.08-.37.09-.42,0-.23,0-.23a.93.93,0,0,1,0-.13.25.25,0,0,0,0-.1.79.79,0,0,0,0-.13s0-.07,0-.08-.09-.07-.12-.09a.22.22,0,0,1-.08-.1c0-.05-.09-.09-.09-.12s0,0,0-.08a.1.1,0,0,0-.06-.07s0-.07-.06-.07-.06,0-.1,0,0-.06-.1,0a.11.11,0,0,1-.14-.06s-.06-.07-.08-.07,0,0-.07,0-.16,0-.19,0-.06-.06,0-.11-.08-.13,0-.17l.17-.14s0,0,.1,0,.1,0,.13,0a.19.19,0,0,1,.09-.05s0,0,.07,0,.07,0,.1,0a.12.12,0,0,0,.1.06c.07,0,.13,0,.18,0s.09,0,.13,0,.1.06.09,0,0-.16,0-.17,0-.1-.07-.14,0-.07,0-.09-.06-.07,0-.08a.56.56,0,0,1,.22,0s.14,0,.16.08.08,0,.12.05.2,0,.22,0,.12,0,.13,0,0-.06,0-.11a.08.08,0,0,1,0-.08l.12,0,.14-.05.17-.11a.72.72,0,0,1,0-.17s0-.08,0-.11.15-.14.17-.13,0,0,.06,0H52s.09,0,.1-.06l.14-.1.1-.07.16-.08s.08-.09.12-.13A19.71,19.71,0,0,0,44.82,19s0,0,0,0,0,0,.09.06,0,0,0,0,.06.05.06.07a.36.36,0,0,1,0,.1s0,0,0,0a.75.75,0,0,1,0,.11.64.64,0,0,1-.06.11s0,0-.05,0-.06,0,0,0,0,0,.05.07,0,.05,0,.07-.06,0-.07,0a.2.2,0,0,0,0,.11c0,.08,0,.07,0,.12s0,0-.07,0-.07,0-.07.06,0,0,0,.05-.09,0-.13,0-.11,0-.08,0,0,0,.09.06.06,0,0,0a.19.19,0,0,1-.07.08s0,0-.07,0,0,0,0,0-.07.06-.07.06,0-.08,0-.08l-.09,0s0-.05,0,0l-.13.07s-.07,0-.06-.05,0-.08,0-.08,0-.06,0-.05-.06,0-.08,0,0-.1,0-.1l-.12,0s-.12,0-.11,0a.21.21,0,0,1,0-.07l.06-.05s.06-.08.06-.08,0-.07,0-.1l-.11.09s-.05,0-.05,0,0,0,0-.05,0-.08,0,0,0,0,0,.09-.1,0-.11,0,0,0-.06,0a.29.29,0,0,1-.11.06s-.1,0-.1,0,0-.06,0-.06l-.08,0-.06.08,0,0s0,0-.07,0l-.06,0a1.09,1.09,0,0,0,0-.18l0,0,0,0s0,0,0,0h0v-.06s0,0,0,0l0,0s0,0,0,0h0s0,0,0,0,0,0,0,0,0,0,0,0,0,0,0,0,0,0,0,0,0,0,0,0,0,0,0,0h0s0,0,0,0v0s0,0,0,0,0,0,0,0,0,0,0,0l0,0,0,0s0,0,0,0,0,0,0,0,0,0,0,0,.07-.05,0,0l-.1.05h0l-.05,0s0,0,0,0,0,0,0,0a.11.11,0,0,0,0-.05v0h0s0,0,0,0h0s0,0,0,0l0,0a.06.06,0,0,1,0,0,.2.2,0,0,1,0-.05l0,0,0,0s0-.05,0-.05l0,0s0,0,0,0l0,0s0-.05,0-.05h-.06a.05.05,0,0,1-.08,0l-.1-.07.08,0h0a.11.11,0,0,1-.08,0h0s.07-.07.06-.07l0,0,0,0,0,0s0,0,0,0,0,0-.06,0-.07,0-.07,0,0,0,0,0,0-.11,0-.1,0,0,0,0l0,0s0,0,0,0l0,0h0l0-.08h0l-.36-.06h0a0,0,0,0,1,0,0,19.93,19.93,0,0,0-3.48-.31H37.9a.21.21,0,0,1,0,.07s-.07.08-.08.07,0,0,0-.05-.05,0-.07,0-.07,0-.06-.05v0h-.16L36.7,18s0,.06,0,.07,0,.12,0,.1,0,0,.08,0,0,0,.08,0,0,0,0,.05,0,0,0,0l.07-.05s0,0,0,0,0,.05,0,0,0,.06.09.07,0,.07,0,.09,0,.06,0,.06,0,0,0,.06,0,0,0,0,0,0,.07,0,0,.05,0,.08,0,0,0,0,0,.06,0,.06,0,.06,0,.06,0,.08,0,.08a.47.47,0,0,1,0,.09h0l-.07,0s0,0,0,0,0,.07,0,.07a.22.22,0,0,1,0,.11s-.06,0-.06-.06,0,0,0,0,0,0,0,.06a.07.07,0,0,1,0,0s0,0,0,0,0,.05,0,.05l-.06.08s0,0,0-.06,0,0,0,0,0-.05,0-.05a.43.43,0,0,1,0-.05s0,0,0,0-.06,0-.06,0a.56.56,0,0,0,0-.07c0-.09,0,0-.09,0h-.08s-.08-.06-.08-.1-.08,0-.08,0L36.37,19s-.18-.09-.19-.12,0,0,0,0-.07,0-.08,0,0,0-.07,0l-.06,0-.06,0a.11.11,0,0,0,0,.06s0,0,0,0,0,0,.06.06,0,0,.05.05,0,.06,0,.07,0,0,.21.1,0,0,.07.07,0,0,0,.08a1.23,1.23,0,0,0,.22.18c.08.05,0,0,0,.05s0,.06,0,.08,0,0,0,.06,0,.05,0,.06l0,0s0,0-.05,0l-.08,0-.1-.07s0,0-.09,0-.05,0-.06,0-.07,0-.1,0,0,0,0,0,0,0-.07,0-.06,0-.07,0l-.12,0a.09.09,0,0,1-.08-.06c0-.05,0,0,0,0s-.06,0-.06,0l0,0s0,0-.1-.09-.05,0-.07,0l-.06,0a.33.33,0,0,0,0,.06l0,0s-.1,0-.12,0,0,0,0-.05-.05,0-.06,0,0,0,.07-.06,0,0,0-.07a0,0,0,0,0,0-.05s-.05,0-.07,0-.06,0-.1-.05,0-.05-.07-.08,0,0,0-.07,0,0,.11,0L35,19s0,0,0-.07,0,0-.07,0h-.1s-.08,0-.09,0-.08,0-.09,0,0,0,0,0,0,0,0-.08-.06,0-.09,0,0,0,0,0,.1,0,.09,0,0,0-.06,0-.06,0-.11-.08,0,0,0-.08,0,0,0-.05-.08,0-.1,0,0,0-.05,0,0,0,0,0-.05.08-.06.08a.11.11,0,0,1,0-.09s0,0,0-.06,0,0,0,0l-.13,0h0s0,.05,0,.06a.33.33,0,0,1,0,.06s-.08,0-.09,0,0,0-.07,0-.06,0-.06,0l-.07-.05-.06,0s0,0,0,0l0,0s-.05.05-.07.05l-.16,0c-.15,0,0,0-.07,0h-.06a.39.39,0,0,1-.11,0l-.07,0,0,0L31.9,19c0,.09,0,.07-.07.14a.25.25,0,0,1-.24.07.49.49,0,0,1-.17,0,19.75,19.75,0,0,0-5,2.72l.11,0s0,0,.1,0a.33.33,0,0,1,.15.07c.08.06,0,0,0,.07s0,.08,0,.13,0,.1,0,.13a.33.33,0,0,0,0,.14c0,.07,0,.07,0,.09s0,0-.08.09l-.08.08s.05,0,.09,0l.15,0,.19-.08c.06,0,.08,0,.28-.05s.05,0,.1,0,0,0,.08.05,0,.07.05.1.05,0,.11,0,.07,0,.12,0,0,0,.12.08l.08,0,.11,0s.08,0,.09.06,0,0,.11.08,0,.06.08.15.06,0,.1,0l.22,0c.16.05,0,.07.12.1s0,0,.14,0,.05,0,.14.2l.08,0c.09-.05.07,0,.15,0l.16,0c.07,0,0,.06.06.08a.44.44,0,0,0,.2,0l.16,0a.2.2,0,0,1,.16,0c.05,0,0,0,0,0l0,0c.09.15,0,.09,0,.12a.18.18,0,0,1-.08.09s0,.1-.05.13.06.07.06.07l0,.09a.25.25,0,0,0,0,.15c.05.05,0,.05,0,.09a.79.79,0,0,1,0,.12c0,.07,0,0,0,.07s0,0,0,.06,0,.07.05.07,0,0,.07,0,0,0,.11.1a0,0,0,0,1,0,0c.05,0,0,0,0,0l-.1.09c-.08.11,0,0,.1,0s0,.06.14.09,0,0,0,.06.06.05.09.06,0,0,0,.1,0,0,0,.07a.24.24,0,0,1-.08.08.23.23,0,0,0-.06.06,1.62,1.62,0,0,1,.2-.1.2.2,0,0,1,.17,0c.07,0,.15.21.12.13s-.06,0,0-.12,0,0,.07-.1.05,0,.13,0,.08,0,.09.08.09-.08.11-.12,0-.06-.07-.13,0,0,0-.07.05-.08.08-.1.07,0,.08-.05,0-.06,0-.13-.07,0-.08-.05a.44.44,0,0,1,0-.21c0-.08,0-.09,0-.16s0-.07,0-.12-.05-.07-.06-.11a.21.21,0,0,1,0-.13c0-.1,0-.08,0-.11s-.12-.09-.11-.15,0-.06.09-.11.05,0,.12,0a1.62,1.62,0,0,1,.18,0,.37.37,0,0,0,.15-.08l.08-.06a1,1,0,0,0,.15-.13.75.75,0,0,1,.24-.12c.12-.06.1-.13.13-.15a.21.21,0,0,0,0-.09,1.09,1.09,0,0,1,0-.13.43.43,0,0,1,.05-.17c.1-.18,0-.13,0-.21v-.08s0,0,0-.09,0-.09-.08-.17-.06-.07-.06-.1-.13,0-.2-.08a.37.37,0,0,0-.26-.09c-.05,0,.08-.11.11-.15a.5.5,0,0,0,.06-.08.46.46,0,0,0,.14-.09c.08-.07.06-.07.11-.19s.11,0,.15-.05,0-.12,0-.15,0-.07,0-.11,0-.05,0-.1,0-.1-.06-.16,0-.06,0-.1a.67.67,0,0,1,.07-.11c0-.05,0-.13.07-.22s0,0,0-.06a.42.42,0,0,1,0-.17c0-.09-.07,0,0-.15s0-.06.07-.12.12,0,.18-.08.08,0,.15-.07.07.06.1.08,0,0,.21,0,0,0,.09,0,0,0,0,.09,0,.05.1,0,0,0,.07,0,.05,0,.09,0,0,0,.08.07,0,0,.07,0l.12-.06a.28.28,0,0,1,.24,0s0,0,.14-.05.06.07.12.1,0,.07.05.09,0,.1,0,.09.09,0,.15,0,0,.06.08.08,0,0,0,.13a.26.26,0,0,0,0,.09.22.22,0,0,1,.15.06h.07l.16,0s0,.08.05.07.08,0,.14,0,0,0,.12,0,0,.06-.15.21,0,.09,0,.14,0,0,0,.12-.06.1-.06.13,0,0,0,.1.07,0,.07.2,0-.07,0,.05v.06h0s0,0-.08,0-.06,0-.11,0-.05.1,0,.17,0,0,.12-.07a.86.86,0,0,1,.29-.1c.08,0,0,0,0,0s0,.16,0,.16,0,.05-.09.13,0,.12.07.08,0,0,.1-.09,0,0,.09,0,0,.15.06.08,0,0,.13-.06.1,0,.11-.05,0,0,0,0,0,0,0,0,0,0,.1-.07,0,0,.07,0,0,.13.12.14,0-.11.15-.23,0,0,0-.06.07-.06.08-.15.06,0,.1,0,0-.05,0-.09,0-.06,0-.11.12,0,.15-.09h0c0-.1,0,0,0-.06a1,1,0,0,1,.19-.21s0,0,0,.1,0,.1,0,.1,0,.1.06.15a.3.3,0,0,0,.1.07s0,0,0,.07-.11-.13,0,.07l.06.1,0,0s0,.18,0,.23,0,0,.09,0,0,0,.06.09,0,.08,0,.09,0,0,.1.06a.83.83,0,0,1,.15.11c.06,0-.05.07-.07.08s0,.07,0,.1,0,.09.08.1,0,.15.06.15,0,.11,0,.11l-.16,0c-.11,0,0,.07,0,.07s0,.08.07.06,0,.07.07.07,0,.11.07.12.05.1.08.1-.06-.06,0-.05,0,0,.05,0,0,0,0,0l0,.09s0,.17,0,.15,0,0,.08,0,.11,0,.11,0l-.06.11a.14.14,0,0,0,.12-.05c0-.06.06-.05.11-.1s.06,0,.08.07,0,.06,0,.12,0,0,.11,0a1.17,1.17,0,0,1,.2-.05c.08,0,0,.08,0,.16a.66.66,0,0,0,.15.07l-.12.06-.13,0a.68.68,0,0,0-.15,0,.25.25,0,0,1-.19,0s-.06,0-.09.06-.07,0-.08.06-.11.06-.12.1-.2,0-.24,0-.06.05,0,.09A.15.15,0,0,0,38,24l.23-.12c.09-.05.1-.07.1-.07l.12-.06a1,1,0,0,1,.16-.09.86.86,0,0,1,.23-.05c.07,0,.1,0,.1.12s-.07.2,0,.19,0-.08,0-.11.06-.08.11-.08a.78.78,0,0,1,.21,0l.21.11c.06,0,0,.07,0,.13s0,.08,0,.15-.09.09-.14.19l0,.09.09.12-.07.11-.15.11s-.2.09-.22.07a.49.49,0,0,0-.19.06s-.18,0-.22,0-.13,0-.15,0-.14.1-.15.16-.24.13-.3.19-.12,0-.15.05a2,2,0,0,1-.29.13.5.5,0,0,0-.16,0h-.3l-.07-.06a.86.86,0,0,1-.24,0s-.11,0-.13,0l-.05,0-.06,0a1.91,1.91,0,0,0-.21,0l-.13,0-.43,0-.11,0-.21.09a1.2,1.2,0,0,0-.16.16l-.11.11-.17.1h-.19l-.11.07a.87.87,0,0,0-.12.14.44.44,0,0,1-.18.09s0,0-.07.08a1.35,1.35,0,0,1-.09.11l-.15.14-.2.13-.09.17.29-.22c.19-.15.06,0,.13-.09a3.26,3.26,0,0,1,.29-.23c.13-.08.08-.06.16-.09l.23-.14c.05,0,.06,0,.18-.05l.16-.05s.06,0,.15-.06l.08,0s.22-.05.25-.07.12,0,.12,0a.82.82,0,0,1,.22,0l.11.13s.13.06.12.1-.1.1-.15.15-.11.06-.16.1a1.14,1.14,0,0,1-.34,0l.07.06s0,0,0,.07.19-.08.22-.06a.15.15,0,0,1,.06.11s-.18.18-.18.18L36,27s.07.1.09.1,0,.07,0,.07,0,.06,0,.08.06.06.06.06a.45.45,0,0,1,.12.05.18.18,0,0,0,.12.1h.15s0,.12.08.11.19-.06.25-.06.06.09.09.06.05-.05.15-.09.12,0,.17,0,0,.08,0,.11a.58.58,0,0,0,.1.09h-.14l-.11.09a.76.76,0,0,1-.27.11l-.26.07-.28.07a.74.74,0,0,0-.18.06.21.21,0,0,0-.1.12c0,.07-.19.16-.22.19a.78.78,0,0,1-.23.08c-.07,0-.11,0-.17,0s-.06-.05,0-.11-.05-.08,0-.12.07-.09.15-.16a2.46,2.46,0,0,1,.22-.17c.11-.08.06,0,.11,0s0,0,.21-.06.07,0,.16,0,.06,0,.08-.08,0-.06-.08-.07l-.18.05c-.06,0-.07,0,0-.07s0-.09,0-.08h0s0,.08-.07.09a.66.66,0,0,1-.15,0,1.27,1.27,0,0,0-.18.06s-.1-.06-.1-.06l-.09.09c0,.05-.13,0-.21,0v0s0,0,0,.13-.09,0-.12,0S35,28,35,28,35,28,35,28l-.21.07-.15,0a.13.13,0,0,0-.14.05.44.44,0,0,0-.06.12s-.11,0-.16.05,0-.05-.13,0,0,0-.11.09-.08.11-.16.15-.09.08-.09.17,0,.05-.07.15,0,0,0,.08,0,.06,0,.11l.06.11s-.1.07-.14.1a.12.12,0,0,1-.09,0,.67.67,0,0,1-.1.12s0,0-.08,0a.28.28,0,0,0-.26.05c-.16.1-.05,0-.1,0h-.16c-.06,0-.07,0-.12.07a.11.11,0,0,0-.07,0l-.12.08,0-.15a.31.31,0,0,0-.11.05s0,.07,0,.14.09,0,.11.07,0,.1,0,.15-.06.08,0,.13-.17.19-.23.23,0,0-.07,0h-.1s-.07,0-.08-.08v.1c0,.09,0,0,0,.07s0,.07.07.13,0,.1,0,.12,0,0-.09.08,0,.07-.05.13-.07.1-.15,0,0-.09,0-.15-.07-.05-.1-.13,0,0,0-.12.09-.3,0-.27,0,.1-.15.33,0,0-.12,0,0,.05,0,.2a.21.21,0,0,0,.06.11.12.12,0,0,1,.05.1c0,.06-.08,0-.14,0s0,0,.09.09,0,.06.12.05.07,0,.07.07a.34.34,0,0,0,0,.15c0,.08-.05.07-.05.07a.16.16,0,0,0,0,.1c0,.05,0,0,.15.07l0,.08s-.1.07-.19.13,0,0-.13,0,0,0-.06.06,0,.06.16.12-.05.06-.11.09-.06,0-.08,0-.14,0-.15.08a1.24,1.24,0,0,0-.2.18c-.12.15-.06.07-.08.08a.32.32,0,0,1-.19,0c-.09,0-.05,0-.12.07s-.07.08-.11.13a.43.43,0,0,1-.1.09,1,1,0,0,1-.17.13,2.19,2.19,0,0,0-.29.22c-.11.09-.06,0-.09.12a1,1,0,0,1-.13.2c-.05.07,0,0,0,.16s.06,0,0,.14,0,.07,0,.14l0,.16c0,.09.11.1.13.13a.34.34,0,0,1,.09.12s0,0,0,.13,0,.05.05.23,0,0,0,.07,0,.1.06.13,0,.07.07.11,0,0,.05.08,0,0,0,.07a.39.39,0,0,0,0,.16c0,.1,0,.11,0,.12s0,.11,0,.11l-.07.11a.21.21,0,0,0,0,.1l-.1.09s-.06,0-.09,0-.07,0-.08-.05a.91.91,0,0,1-.05-.17c0-.06-.06,0-.09,0h-.07l-.12-.12s0-.06,0-.11a.58.58,0,0,0-.05-.11l0-.08a.28.28,0,0,0-.1-.11c-.07,0,0-.05-.13-.15s0-.08,0-.12a.41.41,0,0,1,.05-.21s0,0,0-.08a.72.72,0,0,1-.07-.11s-.05-.07-.08-.12-.07,0-.1-.08-.08-.06-.13-.08a.13.13,0,0,1-.07-.06s0,0-.13,0l-.12,0-.2,0s-.11,0-.1-.06-.09-.1-.09-.1a.25.25,0,0,0,0-.07l-.16,0-.2,0h-.13a.17.17,0,0,0-.11.06s-.11,0-.18-.07-.06,0-.07.06l0,.06a1.25,1.25,0,0,1-.22-.08c-.06,0,0,0-.12,0s-.06,0-.1,0-.11,0-.15,0,0,0-.14,0,.11,0,.18,0,.05,0,.05,0l.08,0v.08a.18.18,0,0,0,.08.13s0,.06-.06.09-.08,0-.09-.07-.09,0-.09,0,0,.1-.16.1,0-.06,0-.06h0c-.05,0,0,0-.07,0s-.07,0-.13,0,0,0-.05-.08-.05,0-.12,0a.35.35,0,0,0-.22,0l-.1,0a.44.44,0,0,1-.17,0c-.14,0-.08,0-.13,0a.27.27,0,0,0-.11-.05c-.05,0-.18,0-.28.13a.49.49,0,0,1-.16,0c-.09,0-.11,0-.1,0s0,0,0,.07-.06,0-.12.09-.06.05-.06.07-.15.06-.23.08,0,0-.13,0-.06.08-.09.09l-.09,0c-.05,0,0,.09-.09.17l-.09.07s0,.09-.07.14,0,.06.1.14,0,.11.07.2a.91.91,0,0,1,0,.17.25.25,0,0,1,0,.09h0a.51.51,0,0,0,0,.09s-.12.14-.14.17.08.22.09.26-.11.1-.11.1,0,.08,0,.11a.21.21,0,0,1,0,.14c0,.05,0,.05,0,.11a.68.68,0,0,0,0,.25.33.33,0,0,0,.09.17s0,0,.17.2,0,0,.06.14.09.09.15.15.08.11.11.1,0,.15.09.16a.37.37,0,0,1,.09.19s0,0,.11.07.06,0,.16,0H25c.08,0,0,.06.12.09s0,.07.09.08.07,0,.14,0,0,0,.11,0,.08,0,.12,0a.43.43,0,0,0,.19,0l.08,0A.82.82,0,0,1,26,38c.09,0,0,0,.08,0s.05.06.16,0,0-.06.06-.08a.35.35,0,0,0,.11-.09c.06,0,0-.06,0-.12s0,0,.05-.07,0,0,0-.29,0-.07.09-.19,0,0,.05-.06.06,0,.15,0a.37.37,0,0,0,.28-.09s.09,0,.13,0a1.23,1.23,0,0,0,.25,0l.14-.07c.09,0,.08,0,.15,0s.05.05.14.13,0,0,0,.13,0,0-.16.15-.06.07-.09.13,0,.1,0,.19a.23.23,0,0,1,0,.11s0,0,0,.09a.54.54,0,0,0,0,.13s0,.12,0,.12a1,1,0,0,1-.06-.2c0-.06,0,0-.08,0s0,.09,0,.14a.73.73,0,0,1,0,.09s0,0-.07.06,0,.07,0,.14a1,1,0,0,1,0,.21v.1s-.07.07-.08.09a.31.31,0,0,0-.1.19v0c0,.14.12,0,.18,0s.07,0,.11,0h.05c.09,0,.05,0,.14,0s.07,0,.16,0,.13.07.21.05.08,0,.16,0l.26,0c.05,0,.09,0,.18,0s0,.05.06.08a1.21,1.21,0,0,1,.29.17l.09.13h0c0,.06.06,0,.09.08a.16.16,0,0,1,.05.11s0,.14,0,.16a2,2,0,0,0,0,.22c0,.1,0,.06,0,.1a.35.35,0,0,0,0,.18c0,.08,0,.08,0,.16a.57.57,0,0,0,0,.16s0,.13,0,.14,0,0,.15.17l0,0a.61.61,0,0,1,0,.11,1.1,1.1,0,0,0,.09.14.55.55,0,0,0,.11.11l.08.08s.11.06.17.09a.32.32,0,0,0,.21.08c.13,0,.15,0,.15,0h.11a.28.28,0,0,0,.17,0c.11,0,.13,0,.17,0s0,0,0-.1,0,0,.11-.06.07,0,.1,0a1.5,1.5,0,0,1,.17.07h0s0,0,0-.06,0,0,.05,0,0-.06.06-.11,0,0,.07,0,0,0,.05,0,0-.09,0-.16,0,0,0-.06,0-.06.06-.07.05,0,.13,0,0,0,.09-.05,0,0,0,0,0,0,.1,0,0,0,0,0,0,0,0,0l.08,0s0,0,0-.06a.14.14,0,0,1,.08-.07.15.15,0,0,1,.1,0h.09s0,0,0,.06,0,0,0,0,0,0,0,0,0,0,0,0,0,0,0,.07-.06,0-.1,0,0,0,0,0h0s0,0,0,0,.07.16,0,.24,0,.07,0,.1a.29.29,0,0,0,.1.12s.05,0,.1,0,0,0,0-.11,0,0,0-.09-.08-.07-.09-.1a.08.08,0,0,1,0-.07s0,0,.06-.05.09,0,.14,0,0,0,0,0a.24.24,0,0,1,.06-.11c0-.05,0,0,.08,0s0,0,0,.08,0,0,0,0a.15.15,0,0,0,.07,0l.15,0s0,.06,0,.06l.06.08h0s0,0,.07,0,0,0,.14,0,0,0,.09,0a.11.11,0,0,0,.08,0s0,0,.07,0,0,0,.06,0,.07,0,.1,0a.38.38,0,0,1,.12,0l.06-.07c.07-.06.06,0,.11,0H34s.09,0,.09,0h.13l-.08,0c-.09.05,0,0,0,0s0,0,0,.06.08,0,.08,0a.23.23,0,0,0,0,.07.06.06,0,0,0,.07,0s0,0,.07,0,0,0,0,.05,0,0,.06,0h.07l.08.08a.31.31,0,0,1,0,.07l0,.06s0,0,.09,0a.33.33,0,0,1,.1,0s.05,0,.09,0,0,0,0,0h0l0,0s.06,0,.07,0,0,0,.07,0,0,0,0,.06,0,0,.05.07a.25.25,0,0,0,0,.07s.05,0,.08,0,0,0,0,0l.15.1s0,.05.09.09a0,0,0,0,1,0,0h0s0,0,.08,0,0,0,.06,0,0,0,0-.05,0,0,.1,0,0,0,0,0,.06,0,.09,0H36s.06,0,.08,0h0s0,0,0,0,0,0,.05,0,0,0,0,0,.05,0,.09,0l.09,0,.14.09.06.07,0,0a.09.09,0,0,1,.09,0c0,.06,0,0,0,.08s0,.06,0,.09a.09.09,0,0,1,0,.08s0,0,0,.07,0,.06,0,.06,0,0,.07,0l.08.05s0,0,0,0a.31.31,0,0,0,0,.07c0,.12,0,0,0,0s0,.05,0,.07,0,0-.06.06l-.09,0c-.07,0,0,0,0,0a.33.33,0,0,1,0,.06s0,0,.05.1,0,0,0,0,0,0,0,0,0,0,0-.1,0,0,0,0,0,0,.08-.07,0,0,.09,0,.06,0,.09,0,0,0,.07,0h.12s0,0,0,.05,0,0,0,.08,0,0,0,.06a.06.06,0,0,1,0,0l-.1,0H37.1s-.15,0-.1,0l0,0s.08,0,.08,0l.09,0s0,.09,0,.09v0s0,0,0,0,0,0,0,0,0,0,0,0,0,0,.08-.07a.3.3,0,0,0,0-.1s0,0,0,0,.05,0,.07,0,0,0,0,0,0,0,.06,0,0,.05,0,0,0,0,.05,0,0,0,.07,0,.06,0,.08,0a.08.08,0,0,1,.08,0l.05,0s.06,0,.08,0,0,0,.08,0,0,0,.07.1,0,0,0,.07,0,.06,0,.06,0,0,0,0,0,0,0,0l.09,0,0,0s0,0,.09,0,0,0,.06,0a.08.08,0,0,0,.07,0c.05,0,.07.05.12.05s0,0,.07,0,0,0,.08,0,0,0,.09,0a.12.12,0,0,1,.1,0s.05,0,.06,0h.1l.1,0,.07.05s.06.06.09.07l.07,0,.09,0s.05.07.06.11l.08.08s.05,0,.05,0h.1l.06,0h.11s0,0,.13.19l0,0h0a0,0,0,0,0,0,0s0,0,0,0a.64.64,0,0,1,0,.07.09.09,0,0,1,0,.09s0,.06,0,.1,0,0,0,0,0,.07,0,.09,0,.06,0,.09,0,0,0,.07,0,0,0,.06l0,.08s0,0-.06.06a1.8,1.8,0,0,0-.19.2c0,.05,0,0-.06,0s0,.06,0,.07,0,.05,0,.05l0,0a.3.3,0,0,0,0,.09s0,0-.07.07,0,0,0,0H39.8s0,0,0,0l.08,0s0,0,0,0h0s0,0,0,.09,0,0,0,.06,0,.05,0,.1,0,.06,0,.09,0,.09,0,.14,0,.09.05.13,0,0,0,.11a.12.12,0,0,0,0,.08s0,.1,0,.12,0,.07,0,.09,0,0-.06,0,0,0,0,.06,0,0,0,.06,0,0,0,.19,0,0,0,.05,0,0,0,.11,0,.07,0,.11,0,.06-.07.09,0,.09,0,.11,0,0-.08.11,0,0-.07.06a.11.11,0,0,0,0,.07s0,0,0,0,0,0,0,0,0,0-.06,0a0,0,0,0,1-.07,0s0,0,0,0,0,0-.05,0-.07,0-.1,0,0,0-.06,0,0,0,0,0,0,0-.06.06-.05,0-.09,0,.06.06.06.06H38.8s0,0,0,0a.11.11,0,0,0-.06,0l-.07,0-.05,0s0,0,0,.06a.4.4,0,0,0-.14.12l0,0h0s0,0,0,0h-.11s0,0,0,.09,0,0,0,0,0,0,0,.07,0,0,0,.06a.18.18,0,0,1,0,.07s0,.06,0,.08,0,.1,0,.12a.31.31,0,0,1,0,.1s0,0,0,.05a1.58,1.58,0,0,0-.07.16c-.07.06-.06.1-.09.14s0,0,0,.11,0,0,0,.06,0,0,0,.07a.11.11,0,0,1,0,.1s0,0,0,0l-.06,0a.11.11,0,0,0,0,.06l-.09.06s0,0,0,0,0,0,0,0a.27.27,0,0,0,0,.09s0,.08,0,.08l-.06.06a.15.15,0,0,0,0,.08l0,.06s0,.07,0,.11,0,0-.05,0,0,.06,0,.06a.26.26,0,0,1-.16,0l-.08,0s0,0-.05,0h-.07s0,0-.06,0a.2.2,0,0,1-.1,0,.11.11,0,0,1-.08-.07s0,0-.11,0,0,0,0,0-.07-.06-.09-.08,0,0,0-.09,0-.1,0-.14,0,0,0-.08a.7.7,0,0,0,0-.13.2.2,0,0,0,0,.08s0,0,0,.07,0,0,0,0,0,0,0,.06,0,0,0,.11,0,0,0,.07a.09.09,0,0,0,0,.07l.05,0s.14.07.18.06,0,.06.06.07,0,0,0,.1,0,0,0,.09,0,0,0,0a.22.22,0,0,0,.07.06s0,0,0,.07,0,0,0,.09,0,0,0,0,0,0,0,.05,0,0,0,0a.27.27,0,0,1,0,.1l0,0s0,0,0,0l0,0s0,0,0,0,0,0,0,0H36.8l-.31.06h-.23a.12.12,0,0,0-.12,0s0,0,.06.1,0,.05,0,.08,0,0,0,.12a.16.16,0,0,0,0,.06s0,0,.08.07,0,0,0,.05,0,0-.06,0H36a.08.08,0,0,1-.07-.08s-.06,0-.13,0-.06,0-.07,0,.06.06.06.09v.07s0,.05,0,.08,0,0,0,.09l.1,0a.44.44,0,0,1,0-.08s.06,0,.11,0,0,0,0,.16,0,0-.06,0,0,0-.09-.1,0,0,0,0,0,0,0,0,.09.1.09.1,0,0-.07,0,0,.11,0,.11a.14.14,0,0,0,0,.06l0,0a1.26,1.26,0,0,1,0,.16c0,.1-.06,0-.07,0s-.06,0-.11.08,0,0,0,0l-.06,0s0,0,0,0a.34.34,0,0,1,0,.1.16.16,0,0,0,0,.12s.06.06.08.09.07,0,.09.05h.09l.06,0s0,0,.06.08,0,0,0,.06,0,.06,0,.07,0,0,.06,0,0,0,0,.07,0,0-.07.09-.08,0-.1.06-.06,0-.07,0a1,1,0,0,1,0,.18s0,.1,0,.11,0,0-.07,0,0,0-.07.08,0,.09,0,.08,0,0,0,.08,0,.09,0,.1l.08.1a.75.75,0,0,0,.11.13s0,0,0,0a.21.21,0,0,1-.11,0s-.07,0-.09,0,0,0,0,0v0s0,0,.08.05.06.06.08.06,0,0,.06,0,.06,0,.08.06,0,0,0,.07,0,0,0,.06.08.1.11.11,0,0,.08,0,0,0,0,.07,0,0,.06,0l.08.07a.29.29,0,0,0,.1,0l.14,0s0,0,0,0l0,0-.08,0s-.08,0-.08,0,0,0,0,0h-.07s0,0-.06,0,0,0-.11,0-.07,0-.1,0,0,0-.09,0h0c-.09,0,0,0,0,0a.09.09,0,0,1-.09,0,.11.11,0,0,1-.05,0h-.15s-.11,0-.13,0,0,0,0-.06l.06,0s.13,0,.13,0a.13.13,0,0,0,.08,0s0,0,0,0-.08,0-.09-.07a.23.23,0,0,1,0-.1s.06,0,.06,0a.2.2,0,0,0,0,0s0,0-.06,0-.08,0-.11,0,0-.08.08-.11,0,0,0,0h0l-.09,0s0,0,0,0l0,0,0,0s0,0,0,.08l0,.09s0,.08,0,.07l-.13,0c-.06,0,0,0,0-.07s0,0,0-.05,0,0,0,0,.07,0,.1,0,0,0,0-.06a.14.14,0,0,1,0-.07s-.05,0-.08,0-.06,0-.1-.06-.07.07-.08,0,0,0,0,0,0,0,0,0,.06,0,0,0a.44.44,0,0,1,0-.1s0,0,0,0l-.06,0h0s0,0,0,.07,0,0-.05,0,0,0,0-.05,0,0,0-.06,0-.06-.09-.11,0,0,0,0l-.12-.06s0,0,0,0,0,0,.07,0,0,0,0,0-.07-.05-.09-.07a.13.13,0,0,1,0-.08s0,0,0,0,0,0,0,0a.19.19,0,0,1,0-.1s-.08-.07-.09-.11a.12.12,0,0,0-.08-.05l0-.09s0,0,0-.06,0,0,0,0a.24.24,0,0,0,.11,0s-.06,0-.09-.08,0,0,0,0,0,0,0,0,0,0-.09,0,0,0,0-.07.07,0,.06,0v0c0-.05,0,0,0-.05s-.06.05-.08,0,0,0,0,0-.05,0-.05,0,0,.06,0,.07a.3.3,0,0,1-.11-.07s.06,0,.08,0,0,0,0,0,0,0,0,0,0,0,.06-.07.07,0,.07,0,0,0,.08.06,0,0,0,.06,0,0,0,0l0-.07a.11.11,0,0,0,0-.07s0,0,0-.07,0,0,0-.06,0,0,.06,0,0-.08-.07-.08,0,0,0-.11.06,0,.06,0,0,0,0-.08,0,0-.06-.06,0,0,0,0a.09.09,0,0,1,0-.07l0-.1c0-.11,0,0,0,0s0,0,0,0a.31.31,0,0,0,0-.07s0,0,0,0a.06.06,0,0,1,0-.06s0,0,0,0,0,0,0-.07,0,0,0,0,0,0-.05,0,0,0,0,0,0,0-.08,0a.09.09,0,0,1-.06,0A.12.12,0,0,1,34,52a.15.15,0,0,1,0-.09s0,0,0,0,0,0,0-.08a.14.14,0,0,0,0-.09v0s0,0,0,0,0,0,0,0,0-.05,0-.05a.93.93,0,0,0,0-.1,1,1,0,0,0-.07-.1c0-.05,0,0,0-.07a.31.31,0,0,1,0-.09c0-.07,0-.07,0-.16a.08.08,0,0,0,0-.07s0,0,0-.05,0,0,0-.09,0-.07,0-.1a1,1,0,0,0,0-.12c0-.05,0,0,0-.09s0,0,0-.09,0,0,0-.06,0-.05,0-.1,0,0,0,0a.24.24,0,0,0,0-.09s0,0,0-.08,0,0,0-.09,0,0,0-.08a.61.61,0,0,0,0-.13s0-.1,0-.22v-.07a.64.64,0,0,0,0-.09c0-.06,0,0,0-.08s0-.05,0-.15h0s0,0,0,0,0,0,0-.08,0,0,0-.1v0c0-.05,0-.05,0-.11s0,0,0-.06,0,0,0-.09,0,0,0-.09a.09.09,0,0,1,0-.09,1.42,1.42,0,0,0,0-.38,1.11,1.11,0,0,1,0-.13s0,0,0-.12,0,0,0-.08,0,0,0-.12a.25.25,0,0,1,0-.07.22.22,0,0,0,0-.11c0-.07,0,0,0-.06s0,0,0-.06a.17.17,0,0,1,0-.07s0,0,0-.06l0-.07a.69.69,0,0,0,0-.1.15.15,0,0,1,0-.09s0,0,0-.05l0,0c-.08-.08,0,0-.07-.05a.28.28,0,0,1-.11-.1l-.07-.09a.22.22,0,0,0-.1-.07H33l0,0s-.06,0-.08-.06-.05,0-.08,0-.05,0-.07,0a1.13,1.13,0,0,1-.18-.12s-.05,0-.11-.05a.1.1,0,0,1,0,0s0,0,0,0-.06,0-.08,0,0,0,0,0a.09.09,0,0,1,0-.06l-.09-.07s0,0,0,0,0,0,0,0,0,0,0-.06,0,0,0,0a.43.43,0,0,1,0-.07s0,0-.07-.07,0,0,0-.07,0,0-.05,0,0,0-.05-.06l0-.08s0,0-.06-.05l-.08-.1s0,0,0,0l-.07-.12c0-.06,0-.06,0-.09s0-.05,0-.08,0,0,0,0l0,0,0,0,0,0,0,0,0,0s-.06-.07-.06-.1,0,0,0,0l0-.05,0,0s0,0-.05,0-.05,0-.05-.05l0,0h0a.2.2,0,0,1-.09,0s-.06,0-.06-.05,0,0,0,0,0,0,0,0,0,0,0,0,0,0,0-.05,0,0,0,0,0,0,0,0,0,0,0-.06,0,0,0,0a.43.43,0,0,1,0,0s0-.07,0-.08,0,0,.06-.06l0,0a.06.06,0,0,1,.05,0l0,0h0a.23.23,0,0,0,.06-.07s0,0,0,0a.23.23,0,0,0,0-.11s0,0,0,.07,0,0,0,0h-.05a.07.07,0,0,1,0,0s0,0-.06,0,0,0,0,0,0,0,0,0,0,0-.06,0,0,0,0,0,0,0,0-.05,0,0,0,0l0,0s0-.07,0-.09a.06.06,0,0,0,0,0s0,0,0,0L30.7,43s0,0,0,0,0,0,0,0,0,0,0,0,0,0,0,0,0,0,0,0,0,0,0,0h.08l.05,0h.09s0,0,0,0h0s0,0,0,0,0,0,0,0,0,0,0,0v-.08s0,0,.05,0h0s0,0,.07,0,0,0,0,0,0,0,0,0,0,0,0,0l0,0,0,0a.11.11,0,0,0,0-.05s0,0,0,0a.24.24,0,0,1,0-.09.16.16,0,0,0,0-.07V42l0-.06s0,0,0,0,0,0,0-.07,0-.06,0-.08,0,0,0-.06,0,0,0,0,0,0,0,0,0,0,0,0a0,0,0,0,1,0,0h0l0,0s-.05.05-.08,0,0-.07,0-.09-.06,0-.06,0l0,0s0,0,0,0a.56.56,0,0,0,0,.07.06.06,0,0,1-.05.05s-.12,0-.11,0,0,.08,0,.09l.07.08s0,0,0,.11l-.05,0-.06,0-.12,0v0s-.06-.08-.07-.1a.05.05,0,0,0-.05,0s0,0-.06,0-.05,0-.05,0a.24.24,0,0,0,0-.07s0,0,0,0l-.07-.06s-.06,0-.1,0l-.21,0a.27.27,0,0,0-.11-.06l0,0s0,0,0,0-.06,0-.09,0,0,0,0-.06,0,0,0,0l0,0s0,0,0,0,0,0,0,0,0,0,0,0-.06,0-.06-.07-.05,0-.07,0-.05,0-.07,0a0,0,0,0,0-.05,0s0,0-.05,0,0,0,0,0l0,0,0-.08s-.09-.08-.07,0l.05.06s0,.08,0,.08v0s-.07,0-.08,0l-.1-.05h0l-.05,0s-.05,0-.07-.07,0-.05,0-.08,0-.07,0-.08,0-.13,0-.15h0s0,0,0-.05-.05,0-.05,0l-.05-.06s-.08,0-.12,0l-.05-.05a.29.29,0,0,1-.08-.08s-.05,0,0-.06-.07-.06-.08-.09-.11-.07-.14-.09l0,0a.05.05,0,0,1,0,0s0,0,0-.09-.05,0-.07,0h-.21l-.15,0h-.13a.39.39,0,0,1-.14,0s-.06,0-.08,0-.11,0-.16-.07l-.08,0h0l-.11,0a.19.19,0,0,0-.11,0s-.06,0-.06,0a3.85,3.85,0,0,0-.37-.13.08.08,0,0,1-.06,0l0,0s-.05-.08-.05-.1a.94.94,0,0,1-.1-.12c0-.07,0,0-.08,0s0,0-.06,0l-.07-.05-.08,0s-.15-.11-.18-.12l-.15-.06-.14,0h-.08s0,0,0,0l-.05,0a.35.35,0,0,0-.14.06.37.37,0,0,1-.14.05s0,0,0,0h-.11l-.1,0s-.11,0-.13,0a.37.37,0,0,1-.12,0l-.36-.13-.09,0-.08,0a.09.09,0,0,1-.06,0s-.06,0-.06,0l-.1,0s-.07,0-.11,0l0,0-.08,0h-.1l-.08,0a.24.24,0,0,0-.13-.06c-.09,0-.07,0-.09,0l0,0s-.1,0-.1-.07-.08,0-.08-.06l-.11-.07s-.08,0-.08,0l-.1,0s-.14,0-.2,0L22,38.11H22a.47.47,0,0,1-.1-.05s0,0-.05,0,0,0,0,0-.07-.07-.1-.08a.22.22,0,0,1-.09-.07l-.1,0s-.06,0-.07,0a.23.23,0,0,1-.07-.07s-.08-.06-.1-.06,0-.09,0-.12-.08-.09-.08-.11a.24.24,0,0,1-.06-.1s0,0,0,0a.19.19,0,0,0,.06-.08s0,0,0,0a.28.28,0,0,1,0-.1s0,0,0,0,0,0,0,0l0-.05L21,36.86s0,0,0,0,0,0,0,0,0-.06,0-.11S21,36.6,21,36.59a.3.3,0,0,1,0-.08s-.17-.11-.17-.13-.08-.08-.07-.1-.06-.06-.15-.11,0,0-.05-.06,0,0-.06-.06-.05,0-.08,0,0,0,0,0-.05,0-.06,0-.08,0-.09-.07-.06,0-.06-.06,0,0,0-.05,0,0,0-.06L20,35.65h-.1l-.08-.08a.08.08,0,0,0-.05,0l-.08,0-.06,0-.07,0s0,0,0-.07,0,0,0,0,0,0,0-.08,0,0,0-.06,0,0,0,0a.48.48,0,0,1-.11-.08.1.1,0,0,1-.06-.06s-.05,0-.05,0,0,0-.07,0,0,0,0,0l-.05,0a.57.57,0,0,1,0-.13.22.22,0,0,0,0-.05l-.05,0-.1,0s0,0,0,0-.07,0-.08,0h0c0,.15,0,.3,0,.45h0s0,0,.08.09,0,0,.06.08,0,0,0,0,.12.1.12.12,0,0-.09,0,0,0,0,0,0,0,.07.05,0,0,0,0a.32.32,0,0,0,.06.07.13.13,0,0,1,.06,0,.1.1,0,0,1,0,.09s0,0,0,0,0,0,0,.08,0,0,.05,0a.21.21,0,0,1,.08.06h.11s.06,0,.08,0,0,0,0,.07,0,0,0,.05a.07.07,0,0,0,0,.06l.05.06,0,0a.09.09,0,0,1,0,.05l-.1.08a.28.28,0,0,1-.12,0s0,0,0-.1,0,0-.05,0,0,0,0,0-.05,0-.07-.06l-.09,0s0,0,0-.07L18.92,36a.32.32,0,0,0-.13-.08l-.1,0c-.05.58-.09,1.18-.09,1.78a19.73,19.73,0,0,0,37,9.47h0a.38.38,0,0,1,0-.12.56.56,0,0,0,0-.07.38.38,0,0,0-.09-.26h0c-.1-.08-.19-.26-.23-.26a.17.17,0,0,1-.09-.07l-.12-.18c-.15-.21-.36-.48-.39-.46s-.07-.15-.11-.15-.13-.19-.15-.23,0-.15,0-.23a.42.42,0,0,1,0-.25c.05,0,.14,0,.13-.17a1.86,1.86,0,0,1,0-.22.84.84,0,0,0,0-.19.16.16,0,0,1,0-.14,0,0,0,0,0,0,0,.76.76,0,0,0,.08-.15s0-.23,0-.25-.08-.21-.1-.21-.06-.13-.1-.11-.1.06-.13.05-.06-.07-.09-.09a.2.2,0,0,1-.06-.09v-.05c0-.06.07-.1,0-.08l-.2.08-.17.07a.28.28,0,0,1-.16,0,1.05,1.05,0,0,0-.35,0s0,0-.11-.07A.24.24,0,0,1,53,43s0-.16,0-.17,0-.15-.11-.13-.11-.08-.16-.09,0-.09-.14-.12a.58.58,0,0,0-.26,0h-.17s0-.09-.09,0a.79.79,0,0,1-.31.07l-.07,0h0l-.11,0a.49.49,0,0,1-.19.07s-.07,0-.11.06h0l-.11.06-.14,0c-.08,0-.1,0-.13,0s0,0-.09.07a.42.42,0,0,1-.19.09,1.28,1.28,0,0,0-.18.12,0,0,0,0,1-.06,0s0-.13-.14-.15l-.18,0-.07,0a.26.26,0,0,0-.16,0c-.08,0-.31,0-.36,0s-.11,0-.21,0-.14,0-.21,0a.76.76,0,0,1-.19.07s0,0-.1,0a.82.82,0,0,1-.23.15h0l-.13,0a.77.77,0,0,1-.19-.08s-.15,0-.16,0L47.89,43s-.08,0-.09-.08a.58.58,0,0,0-.1-.08s-.09,0-.11,0a.41.41,0,0,0-.11-.12,1.19,1.19,0,0,1-.16-.16.69.69,0,0,0-.22-.13.59.59,0,0,1-.14,0l0,0s-.09-.14-.11-.14l-.13-.07s0-.06,0-.06h-.1l0-.07v-.11a.76.76,0,0,0-.09-.18.87.87,0,0,0-.09-.11h0l-.08-.11a2.33,2.33,0,0,0-.3-.33L45.87,41l-.11-.1-.06-.1,0,0c-.05,0-.08-.09-.09-.08s0,0,0,0,0-.08,0-.08v-.1s-.06-.06-.09,0-.09,0-.12,0-.05,0-.07,0-.07,0-.09,0,0-.08,0-.08l-.08,0,0-.06,0,0s0-.06,0-.06,0-.08,0-.13,0,0,0-.07a.3.3,0,0,1,0-.1s.06-.06,0-.05a.57.57,0,0,1,0-.13s-.09-.13-.12-.12,0-.07-.06-.09-.06-.11-.08-.12,0-.07,0-.1l.14-.14s0-.08,0-.11.06-.19.06-.19a.21.21,0,0,1,0-.06l0,0s0,0,0-.17a.4.4,0,0,1,.09-.21l0-.1s0-.19,0-.19,0-.11,0-.16a.28.28,0,0,0,0-.08L45,37.73s0-.06,0-.08a.23.23,0,0,0,.08-.11,1.46,1.46,0,0,0-.13-.25s-.1-.19-.16-.15-.06,0-.08,0a.15.15,0,0,1,0-.15s0,0,0-.06h0a.76.76,0,0,0,0-.19s0-.06,0-.1a.44.44,0,0,1,.12-.12.87.87,0,0,0,.14-.27.66.66,0,0,0,0-.15c0-.05,0-.07,0-.1s0-.1.07-.12a.3.3,0,0,0,.08-.08.9.9,0,0,0,.09-.1l.1-.12a1.56,1.56,0,0,1,.06-.15l.05-.14s0-.12,0-.13.12-.1.12-.1l.11-.07s.13-.11.13-.11a.41.41,0,0,0,.05-.09,1.37,1.37,0,0,1,0-.19h0s.09-.12.12-.13.38-.14.4-.13a.36.36,0,0,0,.13-.06.59.59,0,0,1,.11-.08.38.38,0,0,0,.07-.08l.05-.06A.1.1,0,0,1,47,34s.07,0,.11-.06l.08-.09s.06-.08.08-.1l.07-.11s0,0,0-.07,0-.14,0-.14,0-.06,0-.09.1-.47.1-.47,0-.07,0-.09l.09-.14a.61.61,0,0,1,.09-.12s0-.06.11-.12.1-.12.12-.12.09-.07.1-.05.14,0,.14,0l.17-.06s.07-.1.09-.09.08-.07.09-.07a.28.28,0,0,0,.06-.09.36.36,0,0,1,0-.09l0-.08a1.83,1.83,0,0,0,.1-.2s0,0,0-.09a.42.42,0,0,1,.07-.11s0-.06,0,0,.07,0,.07.05.06,0,.06.07.17,0,.18.1.15,0,.15,0,.09.05.12.05l.15,0,.07,0a.15.15,0,0,1,.08,0s.06-.05.09,0l.05.06s.11,0,.12,0,.05,0,.06.05,0,0,.07,0,.08,0,.1,0,.07,0,.07,0l.09-.07.07-.08.08-.07s.06-.07.08-.06l.29-.1s0,0,0,0,.12-.07.15-.09l.1-.06s.05-.07.08-.07.06-.07.14-.05a3.41,3.41,0,0,0,.37,0s.14-.06.18-.06.1-.07.12-.06,0,0,.06,0a.53.53,0,0,1,.17,0,.61.61,0,0,0,.15,0l.32,0,0,.05s0,0,.07,0a.51.51,0,0,0,.23-.09s.06-.06.08-.06l.09,0s.11,0,.12,0,.05,0,.07,0,.11,0,.13,0,0,0,.06,0,0,0,.08,0,.08,0,.11.06.1,0,.12,0h0a2,2,0,0,0,.3-.1s0,0,.07,0,.1-.07.12-.06,0,0,.08,0,.11,0,.12.08,0,.09,0,.13-.06.05,0,0,.17-.11.18-.11.07,0,.07,0a.4.4,0,0,1-.09.16.88.88,0,0,1-.06.1s0,0,0,.07,0,.06.06.09a1.13,1.13,0,0,1,.14.22v.08s0,.05,0,.08a.47.47,0,0,1-.07.12s-.09.06-.1.08-.1,0-.11.06a.21.21,0,0,1-.06.08s-.06,0,0,.05.05,0,.09.09a.16.16,0,0,0,.09.06s.06,0,.06,0,.08,0,.1,0,0,.08.06.1a.38.38,0,0,0,.09.09l0,0,.09,0s.07,0,.1.05a.26.26,0,0,0,.08.06.1.1,0,0,0,.07,0s.11,0,.12,0,.23,0,.23,0l.23,0a1.54,1.54,0,0,0,.23.14s.11,0,.14,0a.11.11,0,0,1,.06.07l0,.09c0,.06.08.09.08.15s0,.1,0,.12.11,0,.12,0,0,0,.06,0,.15-.05.15,0a1.38,1.38,0,0,0,.26.06l.1,0s.11,0,.15.06.09,0,.11.06l.09,0a20.26,20.26,0,0,0-1-3.1ZM31.07,19.66a.62.62,0,0,1-.25.19c-.12.06-.1.07-.22,0s-.1-.06-.09-.12.12-.1.18-.17.13,0,.16-.06a2.17,2.17,0,0,1,.28-.07c.11,0,.05,0,.12.07S31.15,19.59,31.07,19.66Zm.92.24a1.05,1.05,0,0,1-.15.24c-.07.09,0,0-.09-.05s0-.07,0-.17a.17.17,0,0,1,.11-.16c.11-.05.18-.07.23,0S32,19.81,32,19.9Zm.77-.64c0,.07,0,0-.07,0s-.06,0-.15,0,0-.07,0-.11a.33.33,0,0,1,.16-.05s.06,0,.09,0S32.8,19.18,32.76,19.26Zm.3-.13c-.06,0-.19,0-.15-.11A.31.31,0,0,1,33,19s.07,0,.11.09S33.12,19.1,33.06,19.13Zm3.17,8.08c-.06,0,0-.07-.07-.11s.07-.1.11-.11,0,0,0,.07,0,0,0,.08,0,.09,0,.13S36.29,27.24,36.23,27.21Zm-3.41,9.54s.07,0,.11,0,0,0,0,0a.31.31,0,0,1-.1,0S32.8,36.76,32.82,36.75Zm-.23.43c.06,0,.27,0,.23,0s0,0,0,0-.08,0-.13,0a.15.15,0,0,1-.09,0A0,0,0,0,1,32.59,37.18Zm-.23-.55c.19,0,.12.12.12.12a.1.1,0,0,1-.06.1c-.07,0,0,0,0-.06s.06,0,0-.09S32.31,36.64,32.36,36.63Zm-.3-.28s0,0,0,.08,0,.07,0,.09,0,0-.07-.06,0-.05-.07-.06,0-.07,0-.09S32,36.34,32.06,36.35Zm-.23-.43s.05,0,.09.06,0,0,0,.07,0,.09,0,.1,0,0,0-.09,0-.06,0-.08S31.81,35.94,31.83,35.92Zm-.09.41s0,0-.08,0,0,0,0,0S31.76,36.28,31.74,36.33Zm-.18-.7c.05,0,.05,0,.08.08a.16.16,0,0,1,0,.11s0,0-.06,0,0-.08-.05-.12-.14,0-.13-.06S31.51,35.63,31.56,35.63Zm-.43-.48c.1,0,.14,0,.15,0s0,0,0,.07a.16.16,0,0,1,0,.12s-.06.07-.06.09,0-.06,0-.1,0-.07,0-.1S31.09,35.17,31.13,35.15Zm0,1c.05,0,0,0-.06.13s-.05,0-.06-.09Zm-.08-.22s0,.06,0,.15,0,0-.09,0,0,0-.08-.06,0,0,0-.11a.32.32,0,0,1,0-.18l.06,0Zm-.36-.74c0-.09.12,0,.17,0s.11,0,.08.06-.07,0-.13,0-.14.09-.15,0S30.68,35.23,30.71,35.15Zm-1.44,1.91c-.08,0-.05,0-.08-.06s0-.11,0-.12.15.07.16.15S29.36,37.05,29.27,37.06Zm2.47,1.28a1,1,0,0,1-.22,0c-.06,0-.06,0-.13,0s-.06.09-.13,0-.09,0-.15-.08S31,38.28,31,38.2a.43.43,0,0,1,.22-.07.68.68,0,0,1,.26,0c.1,0,.07,0,.18.07S31.81,38.31,31.74,38.34Zm.5-.66-.12,0s-.09.12-.12.07a.2.2,0,0,0-.14-.06l-.27,0a.57.57,0,0,0-.22,0c-.12,0-.22,0-.18,0a.4.4,0,0,0,.13-.13c0-.06,0-.09-.05-.11l-.17,0a1.21,1.21,0,0,1-.22-.15s-.05-.15-.11-.17-.07-.06-.16,0,0,.13-.18,0-.12-.15-.2-.14l-.34,0a.68.68,0,0,1-.2-.06c-.06,0-.11,0-.1,0s0-.09,0-.12-.09-.06-.17,0-.12,0-.15.07-.09.08-.15.09-.2-.06-.26,0a.48.48,0,0,1-.13.12s-.09-.19-.06-.21,0,0,.14-.08.09-.07.14-.09,0-.05.13,0,.09,0,.13,0,.11,0,.17,0h.11c.07,0,.05,0,.15,0h.22l.23.05c.08,0,.15,0,.25,0s.08,0,.11.08a.2.2,0,0,0,.08.11s.09,0,.13,0h.13c.08.09.12.06.16.12s.1,0,.15,0l.17.11c.09.06.1,0,.17.07s.11,0,.14.09,0,0,.07,0l.17.05s.1,0,.11,0,0,.12,0,.13.07,0,.15,0,.1,0,.16.06,0,0,.07.09.07,0,.07.06S32.27,37.71,32.24,37.68Zm2.11.48h-.22a1.68,1.68,0,0,1-.2,0s-.13,0-.15,0-.15,0-.17,0-.09.06-.1.12.07.14,0,.11l-.18-.11s0,0-.09-.05h-.17a.37.37,0,0,1-.15,0,.59.59,0,0,1-.19,0c-.06,0-.07,0-.1,0a.1.1,0,0,1-.09,0l-.08-.07s-.1-.09-.05-.12.2-.09.25-.06a1.27,1.27,0,0,0,.23.08.17.17,0,0,0,.13,0c.06,0,.16,0,.13,0s-.1,0-.13-.1-.09-.06-.07-.11a.11.11,0,0,0,0-.13s-.09,0-.11,0-.09-.07,0-.11.09-.1.2-.07.11.11.19.12a1.57,1.57,0,0,1,.16,0s0,0,.16,0,.1,0,.17,0,.16-.06.2,0a.29.29,0,0,0,.1.12h0s0,0,.15,0,.36.12.36.17S34.43,38.16,34.35,38.16Zm1.17.2c-.07,0-.1,0-.13,0s0,0-.14,0a.35.35,0,0,1-.16,0s-.07-.07-.07-.07-.1-.11,0-.14a.88.88,0,0,1,.28,0h.17c.08,0,.07,0,.09.06S35.58,38.34,35.52,38.36Zm.46.33s-.07,0-.12,0,0,0,0-.07a.2.2,0,0,1,.09,0S36,38.67,36,38.69Zm.59-.16s0,0-.06,0,0-.07,0-.1.07,0,.07,0Zm.08.31s-.07-.06,0-.08.12,0,.11.07S36.68,38.85,36.65,38.84Zm.27-11.61s0,0-.07.09,0,.06-.08.08a.08.08,0,0,1-.1,0s-.09,0-.11,0a.17.17,0,0,1-.15-.05.07.07,0,0,1,0-.11s.28,0,.41,0S36.9,27.2,36.92,27.23Zm.21-1.17A.51.51,0,0,1,37,26a.65.65,0,0,1-.18-.05l-.14-.09a.56.56,0,0,0-.22-.1.18.18,0,0,1-.14-.1c0-.05.22-.05.31,0l.16,0a.45.45,0,0,1,.19.05,2.68,2.68,0,0,0,.28.18s0,.09,0,.09A.18.18,0,0,1,37.13,26.06Zm.27,1.34c-.08,0-.07,0-.12,0s-.1,0-.09-.07a.16.16,0,0,1,0,0,2.73,2.73,0,0,1,.24-.26c.07,0,.08-.12.13,0s.12,0,.06.15A.53.53,0,0,1,37.4,27.4Zm0,12.72c-.06,0-.05-.13,0-.14S37.44,40.12,37.38,40.12Zm0,.18s-.1,0-.06,0S37.39,40.28,37.38,40.3Zm0-.59a.14.14,0,0,1,.06.13c0,.06-.06,0-.1,0s-.05-.06-.05-.14S37.35,39.69,37.38,39.71Zm-.29-.45s0-.09,0-.12v0s0,0,.07,0a.2.2,0,0,1,0,.11Zm.1,1.47s0-.14,0-.11S37.23,40.73,37.19,40.73Zm0-1.17s0-.1,0-.12h0s0,0,.06,0,.05,0,0,.07,0,.05,0,.06S37.2,39.58,37.18,39.56Zm.21,1.83h-.13c-.06,0,0,0,0-.09s0-.13.1-.16.11.05.11.16S37.47,41.39,37.39,41.39Zm.34-13.94a.87.87,0,0,0-.14.08c-.05,0-.12,0-.13,0s0,0,0-.08,0-.13.1-.15.16-.09.17,0S37.8,27.41,37.73,27.45Zm2.68-.72s0,0-.07.07,0,.06,0,.1,0,0,0,.08a.22.22,0,0,1-.14.07l-.08-.16-.16.07a.51.51,0,0,1,0-.19v-.05c-.11,0-.17-.06-.16,0s0,.07-.11.09a.34.34,0,0,0-.13.1.12.12,0,0,1-.11.07h-.1s-.09,0-.07,0,0,0,.08-.07a.29.29,0,0,0,.1-.06.27.27,0,0,0-.06-.09s0,0,0-.06.05-.1,0-.1-.06,0-.15.05a.48.48,0,0,1-.16.05h-.13c-.1,0,0,0-.15,0h-.29a1.18,1.18,0,0,0-.22,0,.27.27,0,0,1-.14,0,.24.24,0,0,1,0-.13l.1-.09.08-.06s.08-.08,0-.08h-.11a.28.28,0,0,1,.08-.08s.08,0,.1-.09,0,0,0-.09,0-.08.05-.09l.09-.1.1-.08a.17.17,0,0,0,0-.11s0-.06,0-.09.08-.14.13-.19a1.09,1.09,0,0,0,.11-.13s.13-.07.16-.12,0-.16.12-.2.06-.05.13-.06h.12c.09,0,0,0,.09,0s0,0,0,0,0,0,0,0,0,.07,0,.11-.14,0-.11,0,.08,0,0,.13-.14.15-.21.2-.1.08-.11.13a.75.75,0,0,1,0,.11s0,0-.05.09a.26.26,0,0,0,0,.11,1.3,1.3,0,0,1,.16-.15c.09-.08.05-.08.09-.08s0,0,.1,0h.12s0,0-.05.09,0,0-.07.06a.2.2,0,0,0-.05.09s0,0,.08,0,.13,0,.14,0a.37.37,0,0,1,0,.16l.07,0s0-.08.07-.1a.39.39,0,0,0,.09-.08s.07-.08.08-.06a.09.09,0,0,0,.12.09s0,0,.07,0,.14,0,.13.07,0,.05-.06.09-.06,0-.09,0,0,.08,0,.14.08,0,0,.05,0,0,0,0a.25.25,0,0,0,.12,0s.08-.07.11-.08.12-.06.11,0,0,0-.08.09-.12.05-.16.1-.14.13-.13.17.06.09.11.05.05-.11.11-.14l.11,0a.17.17,0,0,1,0,.18.17.17,0,0,0,0,.06l.16-.05A.2.2,0,0,1,40.41,26.73ZM36.69,55.08a.2.2,0,0,0,0,.05A.2.2,0,0,1,36.69,55.08ZM27.46,44.91s-.08,0-.13,0a.12.12,0,0,1-.12-.1c0-.06.05,0,.06-.05a.09.09,0,0,0,0-.09l-.08,0s.05-.09.07-.11,0,0,0,0,.09.05.11.08,0,0,0,.08.07.08.1.12S27.48,44.88,27.46,44.91Zm0-.26s.05,0,0,.05S27.48,44.65,27.48,44.65Zm.2.22s0,0-.07,0,0-.08,0-.11,0,0,0,0,0,0,.09,0S27.69,44.84,27.68,44.87Zm.26.05s0-.05,0-.06.08,0,.08.06S28,44.94,27.94,44.92Z"/><path class="cls-3" d="M53.46,34.58s-.08,0-.08,0-.05.06-.07,0-.05,0-.05,0,0,.09,0,.11,0,0,.06,0a.38.38,0,0,0,.11-.08s0-.06,0-.07a.12.12,0,0,0,.07,0S53.48,34.59,53.46,34.58Z"/><path class="cls-3" d="M53.09,34.69s-.05.05,0,.08,0,.06.07,0a.28.28,0,0,0,0-.09S53.09,34.69,53.09,34.69Z"/><path class="cls-3" d="M52.93,34.43a.07.07,0,0,0-.08,0,.14.14,0,0,1,0,.07s.05.06.07.06.08,0,.08-.08A.09.09,0,0,0,52.93,34.43Z"/><path class="cls-3" d="M53.76,34.72h-.11s-.07,0-.07.05,0,.06,0,.07,0,0,.06,0,.06,0,.09,0a.15.15,0,0,0,0-.06s0,0,0-.06S53.82,34.72,53.76,34.72Z"/><path class="cls-3" d="M54.29,34.51s-.06,0,0,.07,0,0,0,.05l-.06,0a.08.08,0,0,0,0,.07s-.06.05,0,.08l0,0s0,0,.07,0,.08,0,.11-.05.07,0,.07-.09,0-.05,0-.07S54.34,34.48,54.29,34.51Z"/><path class="cls-3" d="M54.5,34.28s0,0-.08,0-.07,0-.06,0,0,0,0,0,0,.06,0,.07.06,0,.08,0,0,0,0-.05.06,0,.07,0a.12.12,0,0,0,0-.08S54.54,34.25,54.5,34.28Z"/><path class="cls-3" d="M52.82,34.85s0,0,0,0,0,0,0,0,0,0,0,0a.16.16,0,0,0,.06-.08s0-.07,0-.07A.11.11,0,0,0,52.82,34.85Z"/><path class="cls-3" d="M53.19,32.83s-.07,0,0,.07,0,.06,0,.07a.06.06,0,0,0,.07,0l0,0h.05a.07.07,0,0,0,0,0s0-.06,0-.07Z"/><circle class="cls-4" cx="38.23" cy="37.5" r="19.5"/></g></svg>