<svg xmlns="http://www.w3.org/2000/svg" viewBox="0 0 79 102"><defs><style>.cls-1{fill:#f39800;stroke:#f39800;stroke-width:2.29px;}.cls-1,.cls-2{stroke-miterlimit:10;}.cls-2{fill:none;stroke:#fff;stroke-width:2px;}.cls-3{fill:#fff;}</style></defs><title>middle</title><g id="圖層_2" data-name="圖層 2"><path class="cls-1" d="M74.08,38.72A35.72,35.72,0,1,0,2.72,41a35.36,35.36,0,0,0,5.9,17.49c2.9,4.36,29.11,38.15,29.11,38.15S62.31,66.4,67.1,59.92A35.56,35.56,0,0,0,74.08,38.72Z"/><circle class="cls-2" cx="38.4" cy="38.7" r="28.76"/><path class="cls-3" d="M21.83,48.82a3.75,3.75,0,0,1,.35-2c1.48-3.7,4.66-6.52,6.13-10.22a7.67,7.67,0,0,1,1.53-3c.64-.6,1.57-.95,1.95-1.74s0-1.86.43-2.69a4.07,4.07,0,0,1,1.32-1.29,18.83,18.83,0,0,0,3.51-4.36,9.19,9.19,0,0,1,4.1-3.72,1.33,1.33,0,0,1,.62-.1,1.43,1.43,0,0,1,.57.27c1.3.87,2.74,2,2.7,3.58,0,.51-.14,1.14.28,1.43a1,1,0,0,0,.55.14,5.5,5.5,0,0,1,2.3.26c.7.38,1,1.17,1.55,1.79,1.25,1.53,3.41,1.89,5.38,2.14a21.12,21.12,0,0,0-4.47,6.06,6.67,6.67,0,0,0-.87,3.52A7.17,7.17,0,0,1,50,41.33c-.15.63-.62,1.14-.77,1.77-.23.92.26,1.87.29,2.83a3,3,0,0,1-1.19,2.51c-.55.42-1.23.64-1.77,1.06A12.52,12.52,0,0,0,45.2,51a2.1,2.1,0,0,1-1.73.82c-1.22-.15-2-1.89-3.21-1.5A3.47,3.47,0,0,0,40,48.58a1.22,1.22,0,0,0-1.45-.66,3.32,3.32,0,0,0-.58.4,3,3,0,0,1-2.67.21c-.88-.29-1.69-.79-2.56-1.09a6.26,6.26,0,0,0-6.48,1.65,5.81,5.81,0,0,1-1.43,1.37C24.23,50.77,22,49.51,21.83,48.82Z"/></g></svg>