<svg xmlns="http://www.w3.org/2000/svg" viewBox="0 0 56 71"><defs><style>.cls-1,.cls-2{fill:#f15a24;stroke-miterlimit:10;}.cls-1{stroke:#f15a24;stroke-width:2.29px;}.cls-2{stroke:#fff;}.cls-3{fill:#fff;}</style></defs><title>mine</title><g id="圖層_2" data-name="圖層 2"><path class="cls-1" d="M53,26.84A25.41,25.41,0,1,0,6.44,40.9C8.51,44,27.15,68,27.15,68S44.63,46.53,48,41.92A25.26,25.26,0,0,0,53,26.84Z"/><circle class="cls-2" cx="27.29" cy="28.83" r="20.46" transform="translate(-12.39 27.74) rotate(-45)"/><rect class="cls-3" x="16.55" y="35.82" width="21.95" height="0.81"/><polygon class="cls-3" points="16.88 35.43 18.04 31.8 20.19 33.56 16.88 35.43"/><path class="cls-3" d="M18.2,31.42s2.26-3.66,3.78-5.58l3.14,2.52a59.36,59.36,0,0,1-4.62,5Z"/><polygon class="cls-3" points="28.75 17.1 34.44 17.1 25.35 28 22.2 25.54 28.75 17.1"/></g></svg>