<svg xmlns="http://www.w3.org/2000/svg" viewBox="0 0 79 102"><defs><style>.cls-1{fill:#f39800;stroke:#f39800;stroke-width:2.29px;}.cls-1,.cls-2{stroke-miterlimit:10;}.cls-2{fill:none;stroke:#fff;stroke-width:2px;}.cls-3{fill:#fff;}</style></defs><title>north</title><g id="圖層_2" data-name="圖層 2"><path class="cls-1" d="M75.24,38.72A35.72,35.72,0,1,0,3.88,41a35.36,35.36,0,0,0,5.9,17.49c2.9,4.36,29.12,38.15,29.12,38.15S63.47,66.4,68.27,59.92A35.55,35.55,0,0,0,75.24,38.72Z"/><circle class="cls-2" cx="39.44" cy="38.7" r="28.76"/><path class="cls-3" d="M28.64,34.47c2.63-2,6.43-1.78,9-3.76,1.47-1.1,2.43-2.79,3.89-3.9a.79.79,0,0,1,.36-.19.84.84,0,0,1,.59.15c1.8,1.07,2.58,3.71,4.65,4.06a9,9,0,0,0,2.67-.32.81.81,0,0,1,.49,0,.9.9,0,0,1,.37.52,8.1,8.1,0,0,0,2.42,3.22A13.6,13.6,0,0,0,49.68,37a4.61,4.61,0,0,0-1.13,4,7,7,0,0,0,1.54,2.5,2.34,2.34,0,0,1,.5.81,2,2,0,0,1-.86,1.94,6.83,6.83,0,0,0-1.66,1.5c-.59,1-.32,2.28-.84,3.29a1.13,1.13,0,0,1-.32.4c-.62.42-1.36-.37-2.1-.49s-1.53.56-2.33.53-1.58-.92-2.48-1c-.63-.07-1.28.27-1.86.05s-.91-.88-1.51-1c-.25,0-.5,0-.74,0-.94-.13-1-1.52-1.64-2.19a2.69,2.69,0,0,0-1.94-.5l-2.9,0a.42.42,0,0,1-.33-.09.37.37,0,0,1-.09-.31c.06-1,1.16-2,.63-2.85a1.56,1.56,0,0,0-.6-.51c-.62-.33-1.31-.53-1.9-.9A2,2,0,0,1,26,40.58S25.7,36,28.64,34.47Z"/></g></svg>