<svg xmlns="http://www.w3.org/2000/svg" viewBox="0 0 79 102"><defs><style>.cls-1{fill:#f39800;stroke:#f39800;stroke-width:2.29px;}.cls-1,.cls-2{stroke-miterlimit:10;}.cls-2{fill:none;stroke:#fff;stroke-width:2px;}.cls-3{fill:#fff;}</style></defs><title>south</title><g id="圖層_2" data-name="圖層 2"><path class="cls-1" d="M73.91,38.72A35.72,35.72,0,1,0,8.45,58.48c2.9,4.36,29.12,38.15,29.12,38.15S62.14,66.4,66.94,59.92A35.55,35.55,0,0,0,73.91,38.72Z"/><circle class="cls-2" cx="38.37" cy="38.7" r="28.76"/><path class="cls-3" d="M26.71,27.4c-.75,1.4-.91,3.39.34,4.36.31.24.68.39,1,.63a4,4,0,0,1,1,1.26,18.37,18.37,0,0,1,2.15,5.51A18.44,18.44,0,0,0,32,42.28a10.2,10.2,0,0,0,4.15,4.41,36.05,36.05,0,0,1,5.09,3.44,4.6,4.6,0,0,1,1.14,1.49,5.62,5.62,0,0,1,.31,1.73L43,58.43a3.13,3.13,0,0,0,.34,1.42,1.05,1.05,0,0,0,1.26.49c.23-.11.42-.35.67-.39.57-.1,1,.75,1.55.66a36.62,36.62,0,0,0,.66-8.16c-1.34-.45-2.18-1.75-2.91-3a1.77,1.77,0,0,1-.32-.82,4.81,4.81,0,0,1,.3-1.14c.24-1.11-.82-2.1-.94-3.23-.23-2.07,2.53-3.24,3-5.26a4.8,4.8,0,0,0-.94-3.57c1.09-.54,1-2.07,1.11-3.27a10,10,0,0,1,1.68-3.91l1.87-3.08a4.14,4.14,0,0,0,.79-2,2.22,2.22,0,0,0-2.9-2c-.6.24-1.22.77-1.82.5s-.58-1.2-.37-1.85.46-1.46,0-2c-1.75.56-3.61,1.13-5.39.68-1.48-.37-2.8-1.42-4.32-1.36-1.67.07-3,1.44-4.06,2.69a1.78,1.78,0,0,1-.68.54c-.92.32-1.81-1-2.75-.7-.67.2-.87,1.1-.67,1.78s.65,1.27.82,2C29.05,23.44,27.46,26,26.71,27.4Z"/></g></svg>