<svg xmlns="http://www.w3.org/2000/svg" viewBox="0 0 77 99"><defs><style>.cls-1{fill:#f39800;stroke:#f39800;stroke-width:2.29px;}.cls-1,.cls-2{stroke-miterlimit:10;}.cls-2{fill:none;stroke:#fff;stroke-width:2px;}.cls-3{fill:#fff;}</style></defs><title>taiwan</title><g id="圖層_2" data-name="圖層 2"><path class="cls-1" d="M74,39.84A35.72,35.72,0,1,0,8.52,59.6C11.43,64,37.64,97.75,37.64,97.75S62.22,67.52,67,61A35.55,35.55,0,0,0,74,39.84Z"/><circle class="cls-2" cx="38.31" cy="39.81" r="28.76"/><path class="cls-3" d="M48.07,21.38c.25.29.67.44.8.81.21.59-.21,1.19-.46,1.76A10.47,10.47,0,0,0,48,27.17c-.22,2.55-1.63,4.82-2.56,7.21C43.59,39.16,43.6,44.67,40.82,49c-1.41,2.17-3.5,4-4.1,6.51a11.87,11.87,0,0,0-.25,2.38l-.12,3.35a1,1,0,0,1-.2.66c-.39.36-1-.11-1.25-.56a15.3,15.3,0,0,1-1.62-3.45A4.4,4.4,0,0,0,32,55.57c-.38-.27-.85-.4-1.21-.69A3.48,3.48,0,0,1,30,53.74q-1.11-2.15-2.23-4.29a6.34,6.34,0,0,1-1-4c.14-.76.57-1.45.73-2.21.23-1,0-2.13.18-3.17A8.21,8.21,0,0,1,29.43,37a27.81,27.81,0,0,0,2.29-3.61,29.52,29.52,0,0,1,2.19-3.88c.79-1.06,1.81-2,2.5-3.09.93-1.54,1.24-3.53,2.65-4.66s3.33-1.08,4.6-2.23C43.66,19.53,45.14,17.8,48.07,21.38Z"/></g></svg>