<svg xmlns="http://www.w3.org/2000/svg" viewBox="0 0 77 99"><defs><style>.cls-1{fill:#f39800;stroke:#f39800;stroke-width:2.29px;}.cls-1,.cls-2{stroke-miterlimit:10;}.cls-2{fill:none;stroke:#fff;stroke-width:2px;}.cls-3{fill:#fff;}</style></defs><title>tickit</title><g id="圖層_2" data-name="圖層 2"><path class="cls-1" d="M74.29,37.84A35.72,35.72,0,1,0,8.83,57.6C11.73,62,37.94,95.75,38,95.75S62.52,65.52,67.31,59A35.55,35.55,0,0,0,74.29,37.84Z"/><circle class="cls-2" cx="38.14" cy="37.81" r="28.76"/><path class="cls-3" d="M42.09,20.4l.13-.12-.49-.49L23.15,38.37,19.53,42l.48.49.13-.12a.29.29,0,0,1,.42,0,.3.3,0,0,1,0,.41l-.13.13.49.49.13-.12a.29.29,0,0,1,.41,0,.29.29,0,0,1,0,.42l-.12.13.49.49.13-.13a.3.3,0,0,1,.41,0,.29.29,0,0,1,0,.42l-.12.12.32.33a3.81,3.81,0,0,1,5,.44h0a3.81,3.81,0,0,1,.45,5l.35.34.12-.12a.29.29,0,0,1,.42,0,.31.31,0,0,1,0,.42l-.13.12.49.49.13-.12a.29.29,0,0,1,.42,0,.3.3,0,0,1,0,.41l-.13.13.49.49.13-.13a.3.3,0,0,1,.41,0h0a.29.29,0,0,1,0,.42l-.12.13.49.48,3.62-3.62L53.47,31.53,53,31l-.12.13a.3.3,0,0,1-.42,0,.29.29,0,0,1,0-.42l.12-.12L52,30.11l-.12.12a.29.29,0,0,1-.42,0,.3.3,0,0,1,0-.42l.13-.12-.5-.49-.12.12a.29.29,0,0,1-.42,0,.3.3,0,0,1,0-.41l.13-.13-.32-.32a3.82,3.82,0,0,1-5-.45h0a3.81,3.81,0,0,1-.45-5l-.34-.35-.13.13a.3.3,0,0,1-.41,0,.29.29,0,0,1,0-.42l.12-.12-.49-.5-.12.13a.32.32,0,0,1-.45-.45l.12-.12-.49-.49-.12.12a.29.29,0,0,1-.42,0h0A.3.3,0,0,1,42.09,20.4Z"/></g></svg>